HIERARCHY
ROOT SpineBase
{
  OFFSET 0.000000 0.000000 0.000000
  CHANNELS 6 Xposition Yposition Zposition Zrotation Xrotation Yrotation
  JOINT SpineMid
  {
    OFFSET 0.000000 26.780308 0.000000
    CHANNELS 3 Zrotation Xrotation Yrotation
    JOINT SpineShoulder
    {
      OFFSET -0.050357 19.886429 -0.581971
      CHANNELS 3 Zrotation Xrotation Yrotation
      JOINT Neck
      {
        OFFSET -0.027122 6.581774 -0.439750
        CHANNELS 3 Zrotation Xrotation Yrotation
        JOINT Head
        {
          OFFSET 1.056860 12.351996 -0.316997
          CHANNELS 3 Zrotation Xrotation Yrotation
          End Site
          {
            OFFSET 0 0 0
          }
        }
      }
      JOINT ShoulderLeft
      {
        OFFSET -11.471090 -3.620923 -8.485752
        CHANNELS 3 Zrotation Xrotation Yrotation
        JOINT ElbowLeft
        {
          OFFSET -1.599383 -19.470099 -4.154378
          CHANNELS 3 Zrotation Xrotation Yrotation
          JOINT WristLeft
          {
            OFFSET 9.677465 -18.156502 -3.556115
            CHANNELS 3 Zrotation Xrotation Yrotation
            JOINT HandLeft
            {
              OFFSET 3.094097 -5.593050 3.528047
              CHANNELS 3 Zrotation Xrotation Yrotation
              JOINT HandTipLeft
              {
                OFFSET 5.839259 -4.639866 -1.489996
                CHANNELS 3 Zrotation Xrotation Yrotation
                End Site
                {
                  OFFSET 0 0 0
                }
              }
              JOINT ThumbLeft
              {
                OFFSET -5.229798 -3.486858 1.895387
                CHANNELS 3 Zrotation Xrotation Yrotation
                End Site
                {
                  OFFSET 0 0 0
                }
              }
            }
          }
        }
      }
      JOINT ShoulderRight
      {
        OFFSET 11.837017 -3.704835 4.393913
        CHANNELS 3 Zrotation Xrotation Yrotation
        JOINT ElbowRight
        {
          OFFSET 1.618686 -17.237126 1.309920
          CHANNELS 3 Zrotation Xrotation Yrotation
          JOINT WristRight
          {
            OFFSET 0.246590 -19.169209 -9.555181
            CHANNELS 3 Zrotation Xrotation Yrotation
            JOINT HandRight
            {
              OFFSET -1.647363 -5.389148 -2.739349
              CHANNELS 3 Zrotation Xrotation Yrotation
              JOINT HandTipRight
              {
                OFFSET -1.900414 -5.176880 -4.801584
                CHANNELS 3 Zrotation Xrotation Yrotation
                End Site
                {
                  OFFSET 0 0 0
                }
              }
              JOINT ThumbRight
              {
                OFFSET 0.878775 0.784759 -3.922908
                CHANNELS 3 Zrotation Xrotation Yrotation
                End Site
                {
                  OFFSET 0 0 0
                }
              }
            }
          }
        }
      }
    }
  }
  JOINT HipLeft
  {
    OFFSET -5.107035 1.046189 -6.031784
    CHANNELS 3 Zrotation Xrotation Yrotation
    JOINT KneeLeft
    {
      OFFSET -5.575927 -30.544834 5.031803
      CHANNELS 3 Zrotation Xrotation Yrotation
      JOINT AnkleLeft
      {
        OFFSET -2.430915 -30.018919 9.924121
        CHANNELS 3 Zrotation Xrotation Yrotation
        JOINT FootLeft
        {
          OFFSET 4.323094 -5.561526 -1.099201
          CHANNELS 3 Zrotation Xrotation Yrotation
          End Site
          {
            OFFSET 0 0 0
          }
        }
      }
    }
  }
  JOINT HipRight
  {
    OFFSET 4.687101 0.056541 -0.228325
    CHANNELS 3 Zrotation Xrotation Yrotation
    JOINT KneeRight
    {
      OFFSET -1.740245 -28.615605 5.736189
      CHANNELS 3 Zrotation Xrotation Yrotation
      JOINT AnkleRight
      {
        OFFSET -5.245203 -32.911278 9.244286
        CHANNELS 3 Zrotation Xrotation Yrotation
        JOINT FootRight
        {
          OFFSET 3.359628 -2.593959 -9.046521
          CHANNELS 3 Zrotation Xrotation Yrotation
          End Site
          {
            OFFSET 0 0 0
          }
        }
      }
    }
  }
}
MOTION
Frames: 13
Frame Time: 0.033333
22.553422 67.297457 367.841712 -1.585261 0.299022 -27.978904 0.136456 -0.253188 27.933050 0.017699 -0.281092 -0.063263 12.406718 0.992037 0.202019 0.000000 0.000000 0.000000 1.565565 0.272588 0.102016 -3.342514 -6.336660 -2.989370 1.147103 17.227368 8.551372 -3.185024 -8.933731 -2.822036 0.000000 0.000000 0.000000 0.000000 0.000000 0.000000 2.653668 4.251131 0.516562 -4.786395 -6.003828 0.981873 -6.567866 11.008480 1.750729 7.789298 -11.807746 1.011136 0.000000 0.000000 0.000000 0.000000 0.000000 0.000000 4.717329 1.789161 28.540926 -3.980830 0.952558 -0.845592 -5.565200 -7.708538 -4.787861 0.000000 0.000000 0.000000 4.818876 0.295377 28.620138 -2.790213 1.731997 -0.623541 -2.581383 -4.407268 3.816145 0.000000 0.000000 0.000000
22.491277 67.247462 367.863265 -1.741565 0.211681 -28.122063 0.074317 -0.326234 28.066589 -0.032755 -0.342415 -0.078017 14.173773 0.240368 0.383988 0.000000 0.000000 0.000000 2.635915 1.170617 -0.115840 -5.057476 -7.117689 -2.728934 3.399303 16.291290 8.130927 -5.671701 -8.995876 -4.545131 0.000000 0.000000 0.000000 0.000000 0.000000 0.000000 2.700680 3.619656 0.450580 -4.442811 -4.579112 1.140034 -5.281249 11.791095 0.607891 3.627338 -8.032631 2.480562 0.000000 0.000000 0.000000 0.000000 0.000000 0.000000 4.923509 1.961922 28.694542 -4.243608 1.121648 -0.928926 -2.983632 -4.200206 -1.897179 0.000000 0.000000 0.000000 4.957492 0.367112 28.757867 -2.783941 1.832085 -0.626150 -1.730221 -2.965034 2.413517 0.000000 0.000000 0.000000
22.433304 67.251184 367.858179 -1.874216 0.177634 -28.355155 0.017297 -0.382955 28.292057 -0.084981 -0.356466 -0.090533 14.193993 0.139042 0.412906 0.000000 0.000000 0.000000 3.437739 1.453001 -0.244217 -6.438464 -7.391805 -2.548466 4.627526 14.277625 6.728615 -4.016342 -7.397490 -3.914086 0.000000 0.000000 0.000000 0.000000 0.000000 0.000000 2.703072 2.203134 0.322011 -3.965722 -2.663239 1.337901 -2.162449 10.602082 -1.123689 -2.375857 -3.955600 4.663361 0.000000 0.000000 0.000000 0.000000 0.000000 0.000000 5.119455 2.082105 28.939993 -4.856305 1.436065 -1.134231 -0.923360 -5.592222 -2.853279 0.000000 0.000000 0.000000 5.232373 0.468768 29.016446 -2.931280 1.928690 -0.656862 -0.652670 -1.044737 0.954500 0.000000 0.000000 0.000000
22.435488 67.334092 367.850473 -1.916296 0.155552 -28.691304 -0.040424 -0.421848 28.624023 -0.098781 -0.349096 -0.095933 12.691455 0.755288 0.277100 0.000000 0.000000 0.000000 3.943560 1.485276 -0.325711 -7.393788 -7.448213 -2.422840 6.152755 11.936059 5.508944 -2.795530 -3.668961 -1.390074 0.000000 0.000000 0.000000 0.000000 0.000000 0.000000 2.252017 0.550080 0.141973 -2.975583 -0.864127 1.455878 0.907354 9.804337 -2.808803 -7.995886 -0.930352 6.814627 0.000000 0.000000 0.000000 0.000000 0.000000 0.000000 5.051853 2.150888 29.254662 -5.709418 1.710706 -1.429193 0.009906 -11.123968 -6.848428 0.000000 0.000000 0.000000 5.299095 0.608201 29.356959 -3.002550 1.889959 -0.668567 1.073634 3.782245 0.993997 0.000000 0.000000 0.000000
22.493761 67.452277 367.847835 -1.885985 0.143808 -29.120641 -0.049043 -0.435953 29.053424 -0.057035 -0.323372 -0.091967 10.161197 2.151964 0.019064 0.000000 0.000000 0.000000 4.693465 1.201326 -0.486361 -8.447085 -7.212195 -2.221807 5.557271 9.651006 3.675235 3.925670 -1.367396 -0.638926 0.000000 0.000000 0.000000 0.000000 0.000000 0.000000 1.980223 -1.552818 -0.076544 -2.104259 1.279222 1.428623 2.544729 8.988855 -3.634833 -11.075626 2.065142 7.477855 0.000000 0.000000 0.000000 0.000000 0.000000 0.000000 4.848674 2.129246 29.656551 -5.566653 1.719014 -1.408251 0.152172 -10.209370 -6.049635 0.000000 0.000000 0.000000 5.261045 0.846171 29.787552 -3.101909 1.713755 -0.680686 -0.695430 -1.242881 0.846679 0.000000 0.000000 0.000000
22.530397 67.545751 367.840022 -1.839887 0.155611 -29.483343 -0.005946 -0.404123 29.419630 0.027744 -0.276961 -0.081262 6.908501 4.069624 -0.248506 0.000000 0.000000 0.000000 4.802493 0.862915 -0.531395 -8.542645 -6.995652 -2.200240 5.626007 8.605266 3.227082 5.746657 -2.797199 -3.700685 0.000000 0.000000 0.000000 0.000000 0.000000 0.000000 1.282197 -3.378505 -0.307684 -1.139219 3.034434 1.423194 2.928850 7.953127 -3.612364 -11.539418 -0.605779 8.523920 0.000000 0.000000 0.000000 0.000000 0.000000 0.000000 4.651581 2.070595 29.995460 -4.715331 1.390277 -1.141115 0.053784 -4.519473 -1.949366 0.000000 0.000000 0.000000 5.260454 0.961191 30.160888 -3.192971 1.635008 -0.694886 -1.485712 -4.277111 -0.487583 0.000000 0.000000 0.000000
22.580231 67.613777 367.824077 -1.734915 0.164844 -29.699372 0.091618 -0.360277 29.642427 0.132710 -0.252166 -0.065304 5.138442 5.282800 -0.389891 0.000000 0.000000 0.000000 4.488614 0.623123 -0.527257 -8.279293 -6.861332 -2.274230 6.682202 9.502507 4.429137 2.728634 -3.718287 -4.758125 0.000000 0.000000 0.000000 0.000000 0.000000 0.000000 0.688316 -4.726192 -0.491265 -0.638597 4.372127 1.449172 3.070323 6.902605 -3.414860 -11.902774 -0.804861 8.932184 0.000000 0.000000 0.000000 0.000000 0.000000 0.000000 4.361930 1.931946 30.183993 -3.007503 0.344881 -0.547104 -0.643071 5.707798 4.572081 0.000000 0.000000 0.000000 5.111092 0.910570 30.369829 -3.137007 1.613675 -0.683727 -2.168847 -6.623990 -1.485687 0.000000 0.000000 0.000000
22.638715 67.651920 367.819621 -1.607507 0.158435 -29.838107 0.116409 -0.316380 29.786772 0.222659 -0.222853 -0.051938 4.886148 5.882211 -0.478659 0.000000 0.000000 0.000000 3.746759 0.442143 -0.420130 -7.428248 -6.820635 -2.487695 6.429136 12.203762 6.175514 -0.520728 -8.041889 -8.111615 0.000000 0.000000 0.000000 0.000000 0.000000 0.000000 0.405573 -5.336299 -0.568100 -0.357286 4.829003 1.352080 2.476749 6.200660 -2.863116 -10.764554 -4.559744 9.618868 0.000000 0.000000 0.000000 0.000000 0.000000 0.000000 4.014352 1.827289 30.283293 -1.660888 0.200636 -0.128524 -2.452859 17.891208 13.707131 0.000000 0.000000 0.000000 4.840237 0.804908 30.482141 -2.973818 1.585400 -0.652294 -2.629570 -8.106040 -2.115903 0.000000 0.000000 0.000000
22.670902 67.645648 367.815666 -1.471503 0.109246 -29.828044 0.192185 -0.298073 29.782272 0.311562 -0.249692 -0.038312 5.157395 5.860594 -0.507730 0.000000 0.000000 0.000000 3.596822 0.442971 -0.467186 -7.283694 -6.868746 -2.575006 5.334209 13.208791 6.524129 1.872975 -8.454728 -7.593513 0.000000 0.000000 0.000000 0.000000 0.000000 0.000000 0.338136 -4.855504 -0.519902 -0.540735 3.593420 1.265132 1.583482 6.620835 -2.235283 -8.757732 -5.810573 8.889431 0.000000 0.000000 0.000000 0.000000 0.000000 0.000000 3.788237 1.783935 30.258444 0.071520 -0.627203 0.513999 -7.730553 34.235835 27.100388 0.000000 0.000000 0.000000 4.533682 0.641849 30.439687 -2.763739 1.618659 -0.614345 -2.818689 -8.588256 -2.156994 0.000000 0.000000 0.000000
22.687902 67.588432 367.823902 -1.398622 0.054911 -29.758102 0.197494 -0.298889 29.713914 0.279303 -0.262006 -0.037787 7.458075 4.854922 -0.437089 0.000000 0.000000 0.000000 3.720802 0.511617 -0.511138 -7.171066 -7.010616 -2.657107 5.578867 15.175155 8.019914 -1.309692 -11.187529 -10.274990 0.000000 0.000000 0.000000 0.000000 0.000000 0.000000 0.726380 -4.996651 -0.493589 -1.141951 3.766499 1.372833 1.133911 7.540932 -2.214617 -7.311436 -8.847480 8.916077 0.000000 0.000000 0.000000 0.000000 0.000000 0.000000 3.769952 1.827306 30.199053 0.489482 -0.778882 0.683411 -6.645193 40.336834 30.490408 0.000000 0.000000 0.000000 4.316888 0.474475 30.340880 -2.567497 1.701961 -0.581060 -2.675253 -8.062388 -1.817996 0.000000 0.000000 0.000000
22.663962 67.514116 367.837067 -1.404606 -0.029817 -29.666794 0.169792 -0.316627 29.620139 0.190739 -0.285398 -0.045818 11.191267 3.303107 -0.239520 0.000000 0.000000 0.000000 3.859062 0.589154 -0.508260 -6.845578 -7.137862 -2.792685 5.714984 17.472880 9.727594 -4.193097 -13.411376 -12.557029 0.000000 0.000000 0.000000 0.000000 0.000000 0.000000 1.314704 -4.748871 -0.420999 -1.691937 4.002204 1.404390 0.037713 7.333152 -1.629127 -4.197767 -7.528362 6.363664 0.000000 0.000000 0.000000 0.000000 0.000000 0.000000 3.919942 1.985215 30.133016 1.139820 -1.146391 0.977543 -14.454769 43.620011 37.666016 0.000000 0.000000 0.000000 4.213692 0.411052 30.228326 -2.443062 1.782138 -0.561205 -2.221259 -6.583162 -1.182695 0.000000 0.000000 0.000000
22.591412 67.434971 367.842365 -1.490588 -0.117754 -29.552780 0.162063 -0.372627 29.500369 0.063813 -0.334902 -0.060086 15.665089 1.529080 0.104213 0.000000 0.000000 0.000000 3.892191 0.711350 -0.448309 -6.342021 -7.222968 -2.966585 5.104945 20.162096 11.438921 -6.107182 -15.543972 -14.133669 0.000000 0.000000 0.000000 0.000000 0.000000 0.000000 1.965154 -3.907942 -0.305499 -2.451868 4.295174 1.539876 -0.842657 7.812363 -1.516051 -3.057126 -7.785673 5.782301 0.000000 0.000000 0.000000 0.000000 0.000000 0.000000 4.179123 2.216205 30.045293 0.786047 -1.187380 0.906506 -17.619352 42.129554 38.950603 0.000000 0.000000 0.000000 4.284453 0.416027 30.110992 -2.423519 1.892589 -0.562088 -1.509217 -4.281886 -0.400021 0.000000 0.000000 0.000000
22.489426 67.375197 367.831607 -1.652690 -0.140813 -29.421306 0.074479 -0.378132 29.361206 -0.087046 -0.305632 -0.079027 19.534674 -0.169134 0.564202 0.000000 0.000000 0.000000 3.927108 0.651922 -0.340261 -5.791645 -7.446461 -3.217279 4.397617 22.471430 12.879953 -8.231602 -14.866046 -12.273942 0.000000 0.000000 0.000000 0.000000 0.000000 0.000000 2.667389 -3.350736 -0.197491 -2.866139 3.801867 1.515406 -1.470938 8.402809 -1.335377 -0.384674 -10.584344 4.949816 0.000000 0.000000 0.000000 0.000000 0.000000 0.000000 4.618649 2.417363 29.957286 -0.508194 -0.857694 0.484187 -15.570601 35.829519 33.215671 0.000000 0.000000 0.000000 4.540071 0.431311 29.994444 -2.493823 2.020170 -0.580153 -0.771016 -1.229289 1.141112 0.000000 0.000000 0.000000
